<svg xmlns="http://www.w3.org/2000/svg" viewBox="0 0 1422 560"><path fill="#fff" d="M1265.8 387.9l129.9-35.6 26.7 12.6.4-.9-25.6-12.1 25.5-7-.3-1-26.7 7.3-80.4-37.9 101.1 14.6.1-1-104.3-14.9-2.8-1.3-67-26.5-13.3-58.4 4.3-2.6 189 61.8.3-1-188.2-61.6 79.3-47.8 108.6 35.3.3-1-107.8-35 107.9-65.1-.5-.9-108.6 65.5L978.3 72.8 1222.9 57l88 8.8L1422.4 97l.3-1-106-29.6L1422.5 77l.1-1-111.5-11.2-6.5-1.8-29.2-8.1 147-5.9v-1l-150.1 6-10.7-3-182-51-.3 1 182 51 7.7 2.2-46.1 1.8-293.2-29.4 7.3-27-1-.3-7.4 27.2-87.6 5.6L722.6 0l-.3 1L838 32.3 661.8 43.6l-2.2-.6-153-44-.3 1 152.5 43.9L500.6 54 398.7-.9l-.5.9 99.1 53.4L269 7.5l-7.1-8.3-.8.6 6.3 7.4L231.6 0l-.2 1 37.1 7.4 49.8 58.4-1.9.1-42.9 7-117.7-75-.5.8L272 74.3 139.4 96l-5.6.8L-.4 72l-.2 1 131.4 24.3L-.6 117l.1 1 134.2-20.1 190.4 35.2L335 268l-111.2 8.6L12 212.7l.1-.1L0 166.4l-1 .3 11.9 45.7-.1.1L-.4 209l-.3 1 10.7 3.2-10.8 9.9.7.7 11.3-10.3L221 276.9-.5 294l.1 1 224.1-17.3 7.7 2.3 82 22 2 .6L205.2 518h-33.6L-.3 431.1l-.5.9 170 86-169.7-6v1l171.9 6 21.2 10.9-17.2 16.1-58 13 .2 1 56.3-12.7-12.7 11.9.7.7 14-13 34.6-7.8 25.8 20.8.6-.8-25.3-20.4 69.3-22.9L718.6 479l1.4-.2 5.4 5-80.2 75.4.7.7 80.3-75.4 81.1 75.4.7-.7-81-75.4 2-1.9.1-.1 2.7-4.8L948 441l2.8.4 220.5 32.6-92.1 85.2.7.7 92.7-85.7 115.8 13.8 83.9 72.9.7-.8-82.7-71.8 132.3 21.7.2-1-133.9-22-79.3-46.9 56.2-52.2zm-317.9 52l-181.4-24.3.5-.9 100-173 1.4-2.4 281.9 166.8-202.4 33.8zM731 476.1l-10.7 1.6-84.3-78.5 128.8 17.2-33.8 59.7zM335.8 269l157.5-12 139.4 140.4L316.8 302l.1-.2 18.9-32.8zm43-127.9L323 105.6l-3-37.8L500.4 55l349.8 173.8-2.2.2-467.9-86.6-1.3-1.3zm-.4 1l-53.2-9.9-2-25.4 55.1 35.1.1.2zm526-26.6l-10.5 38.6-15.9-5.9 6.8-39 19.6 6.3zm-18.4-7l22.8-9-4.1 15.2-18.7-6.2zm359.5 193.8l-5.5-.8-368.4-68.2 3.1-5.4H1089l152.4 56.9 4.1 17.5zm-390.6-72l-1.2-.7 19.9-1.5-2.9 5.1-15.8-2.9zm15.2 3.8l-2.2 3.9-10.6-6.3 12.8 2.4zm-18.1-4.4zm23.2-2.7l19.5-71.6 191.8 71.6H875.2zm-1.1 0l-21.9 1.7L504.8 56.1 877.4 149l16.3 6.1-19.6 71.9zm3-79.1L503.7 54.8l158-10.1 222.2 64.2-6.8 39zm-32.9 81.4L493.7 256 381.4 143.7l462.8 85.6zM634.7 398L494.6 256.9 848 230l6.5 1.2 12.9 7.6-1.4 2.4-100 173-.7 1.3L634.7 398zm234.1-159.5l2.4-4.2 368.7 68.2 5.9.8 19.1 83.7-113.2 19-282.9-167.5zm395.1 149.8l-55.5 51.3-55.4-32.8 110.9-18.5zm130.3-36.6l-128.4 35.2-19-83.4 65.1 9.4 82.3 38.8zm-85.4-40.2l-62.2-9-3.9-17.2 66.1 26.2zm-67.5-27.8L1092 228h136.5v-.3l12.8 56zm-13.1-58.6l-.3.2.4 1.7h-139l-194.4-72.5 10.5-38.6 326.7 106.9-3.9 2.3zm5-3L905.6 114.9 910 99l65.5-26 336.9 101.3-79.2 47.8zm-311.3-167l52.2 17.4-63.8 25.2 11.6-42.6zm350.3-.1l32.1 9 .9.3-75.2-7.5 42.2-1.8zm-55.3 1.4L975.6 72l-53.4-17.8 7.2-26.6 287.5 28.8zM928.4 27.5l-7.2 26.3L844 33l84.4-5.5zm-87.5 5.6l80 21.7-11.8 43.4-24.7 9.7-219.8-63.4 176.3-11.4zM270 8.7l226.7 45.5-177.2 12.6L270 8.7zM316.5 68l2.5-.2 3 37.1-47.2-30.1 41.7-6.8zM136.8 97.4l2.7-.4 133.7-21.9 48.8 31.1 2.1 25.9-187.3-34.7zm242.8 45.9L492.3 256 336 268l-10.7-134.7 54.3 10zm-66 157.7l-82-22-5.2-1.6 108.2-8.4-18.5 32.2-.2.4-2.3-.6zm319.2 97.5L280.6 514.8l-2.2.2-72.1 3 110-215.1 316.5 95.6zM194.3 529.6l11.4-10.6 71.1-2.9-66.3 21.9-16.2-8.4zM173.6 519h30.7l-10.9 10.1-19.8-10.1zm19.9 11.4l15.5 8-31.8 7.2 16.3-15.2zm525-52.4l-433.6 36.5 349.5-115.4 84.7 78.8-.6.1zm9.6 3.2l-2 1.9-4.8-4.5 9.1-1.4-2.3 4zm4.2-5.3l33.6-59.3 178.6 23.9-212.2 35.4zm218.9-35.5l200.3-33.4 56.2 33.3-35.5 32.8-221-32.7zm335 46.3l-112.7-13.5 35.1-32.5 77.6 46z" opacity=".04"/></svg>