<svg xmlns="http://www.w3.org/2000/svg" viewBox="0 0 1422 560">
  <path fill="#fff" style="opacity:0.04;" d="M1265.8,387.9l129.9-35.6l26.7,12.6l0.4-0.9l-25.6-12.1l25.5-7l-0.3-1l-26.7,7.3l-80.4-37.9l101.1,14.6l0.1-1L1312.2,312
    l-2.8-1.3l-67-26.5l-13.3-58.4l4.3-2.6l189,61.8l0.3-1l-188.2-61.6l79.3-47.8l108.6,35.3l0.3-1l-107.8-35l107.9-65.1l-0.5-0.9
    l-108.6,65.5L978.3,72.8L1222.9,57l88,8.8L1422.4,97l0.3-1l-106-29.6L1422.5,77l0.1-1l-111.5-11.2l-6.5-1.8l-29.2-8.1l147-5.9l0-1
    l-150.1,6l-10.7-3l-182-51l-0.3,1l182,51l7.7,2.2l-46.1,1.8L929.7,26.6L937-0.4l-1-0.3l-7.4,27.2l-87.6,5.6L722.6,0l-0.3,1
    L838,32.3L661.8,43.6l-2.2-0.6l-153-44l-0.3,1l152.5,43.9L500.6,54L398.7-0.9l-0.5,0.9l99.1,53.4L269,7.5l-7.1-8.3l-0.8,0.6
    l6.3,7.4L231.6,0l-0.2,1l37.1,7.4l49.8,58.4l-1.9,0.1l-42.9,7l-117.7-75l-0.5,0.8L272,74.3L139.4,96l-5.6,0.8L-0.4,72l-0.2,1
    l131.4,24.3L-0.6,117l0.1,1l134.2-20.1l190.4,35.2L335,268l-111.2,8.6L12,212.7l0.1-0.1L0,166.4l-1,0.3l11.9,45.7l-0.1,0.1
    L-0.4,209l-0.3,1l10.7,3.2l-10.8,9.9l0.7,0.7l11.3-10.3L221,276.9L-0.5,294l0.1,1l224.1-17.3l7.7,2.3l82,22l2,0.6L205.2,518h-33.6
    L-0.3,431.1l-0.5,0.9l170,86L-0.5,512l0,1l171.9,6l21.2,10.9l-17.2,16.1L117.4,559l0.2,1l56.3-12.7l-12.7,11.9l0.7,0.7l14-13
    l34.6-7.8l25.8,20.8l0.6-0.8l-25.3-20.4l69.3-22.9L718.6,479l1.4-0.2l5.4,5l-80.2,75.4l0.7,0.7l80.3-75.4l81.1,75.4l0.7-0.7
    l-81-75.4l2-1.9l0.1-0.1l2.7-4.8l216.2-36l2.8,0.4l220.5,32.6l-92.1,85.2l0.7,0.7l92.7-85.7l115.8,13.8l83.9,72.9l0.7-0.8
    l-82.7-71.8l132.3,21.7l0.2-1l-133.9-22l-79.3-46.9L1265.8,387.9z M947.9,439.9l-181.4-24.3l0.5-0.9l100-173l1.4-2.4l281.9,166.8
    L947.9,439.9z M731,476.1l-10.7,1.6L636,399.2l128.8,17.2L731,476.1z M335.8,269l157.5-12l139.4,140.4L316.8,302l0.1-0.2L335.8,269
    z M378.8,141.1L323,105.6l-3-37.8L500.4,55l349.8,173.8l-2.2,0.2l-467.9-86.6L378.8,141.1z M378.4,142.1l-53.2-9.9l-2-25.4
    l55.1,35.1L378.4,142.1z M904.4,115.5l-10.5,38.6l-15.9-5.9l6.8-39L904.4,115.5z M886,108.5l22.8-9l-4.1,15.2L886,108.5z
     M1245.5,302.3l-5.5-0.8l-368.4-68.2l3.1-5.4h214.3l152.4,56.9L1245.5,302.3z M854.9,230.3l-1.2-0.7l19.9-1.5l-2.9,5.1L854.9,230.3
    z M870.1,234.1l-2.2,3.9l-10.6-6.3L870.1,234.1z M852,229.7L852,229.7L852,229.7L852,229.7z M875.2,227l19.5-71.6l191.8,71.6
    L875.2,227z M874.1,227l-21.9,1.7L504.8,56.1L877.4,149l16.3,6.1L874.1,227z M877.1,147.9L503.7,54.8l158-10.1l222.2,64.2
    L877.1,147.9z M844.2,229.3L493.7,256L381.4,143.7L844.2,229.3z M634.7,398L494.6,256.9L848,230l6.5,1.2l12.9,7.6l-1.4,2.4
    l-100,173l-0.7,1.3L634.7,398z M868.8,238.5l2.4-4.2l368.7,68.2l5.9,0.8l19.1,83.7L1151.7,406L868.8,238.5z M1263.9,388.3
    l-55.5,51.3l-55.4-32.8L1263.9,388.3z M1394.2,351.7l-128.4,35.2l-19-83.4l65.1,9.4L1394.2,351.7z M1308.8,311.5l-62.2-9l-3.9-17.2
    L1308.8,311.5z M1241.3,283.7L1092,228h136.5v-0.3L1241.3,283.7z M1228.2,225.1l-0.3,0.2l0.4,1.7l-139,0l-194.4-72.5l10.5-38.6
    l326.7,106.9L1228.2,225.1z M1233.2,222.1L905.6,114.9L910,99L975.5,73l336.9,101.3L1233.2,222.1z M921.9,55.1l52.2,17.4
    l-63.8,25.2L921.9,55.1z M1272.2,55l32.1,9l0.9,0.3l-75.2-7.5L1272.2,55z M1216.9,56.4L975.6,72l-53.4-17.8l7.2-26.6L1216.9,56.4z
     M928.4,27.5l-7.2,26.3L844,33L928.4,27.5z M840.9,33.1l80,21.7l-11.8,43.4l-24.7,9.7L664.6,44.5L840.9,33.1z M270,8.7l226.7,45.5
    L319.5,66.8L270,8.7z M316.5,68l2.5-0.2l3,37.1l-47.2-30.1L316.5,68z M136.8,97.4l2.7-0.4l133.7-21.9l48.8,31.1l2.1,25.9
    L136.8,97.4z M379.6,143.3l112.7,112.7L336,268l-10.7-134.7L379.6,143.3z M313.6,301l-82-22l-5.2-1.6l108.2-8.4l-18.5,32.2
    l-0.2,0.4L313.6,301z M632.8,398.5L280.6,514.8l-2.2,0.2l-72.1,3l110-215.1L632.8,398.5z M194.3,529.6l11.4-10.6l71.1-2.9
    L210.5,538L194.3,529.6z M173.6,519h30.7l-10.9,10.1L173.6,519z M193.5,530.4l15.5,8l-31.8,7.2L193.5,530.4z M718.5,478
    l-433.6,36.5l349.5-115.4l84.7,78.8L718.5,478z M728.1,481.2l-2,1.9l-4.8-4.5l9.1-1.4L728.1,481.2z M732.3,475.9l33.6-59.3
    l178.6,23.9L732.3,475.9z M951.2,440.4l200.3-33.4l56.2,33.3l-35.5,32.8L951.2,440.4z M1286.2,486.7l-112.7-13.5l35.1-32.5
    L1286.2,486.7z"/>
</svg>
