<?xml version="1.0" encoding="utf-8"?>
<!-- Generator: Adobe Illustrator 21.0.2, SVG Export Plug-In . SVG Version: 6.00 Build 0)  -->
<svg version="1.1" id="Camada_1" xmlns="http://www.w3.org/2000/svg" xmlns:xlink="http://www.w3.org/1999/xlink" x="0px" y="0px"
	 viewBox="0 0 100 100" style="enable-background:new 0 0 100 100;" xml:space="preserve">
<style type="text/css">
	.st0{fill:#FFFFFF;}
</style>
<g>
	<path class="st0" d="M98.2,89.3L58.8,50l39.3-39.3c2.4-2.4,2.4-6.4,0-8.8c-2.4-2.4-6.4-2.4-8.8,0L50,41.2L10.7,1.8
		c-2.4-2.4-6.4-2.4-8.8,0c-2.4,2.4-2.4,6.4,0,8.8L41.2,50L1.8,89.3c-2.4,2.4-2.4,6.4,0,8.8c2.4,2.4,6.4,2.4,8.8,0L50,58.8l39.3,39.3
		c2.4,2.4,6.4,2.4,8.8,0C100.6,95.7,100.6,91.8,98.2,89.3z"/>
</g>
</svg>
